<svg xmlns="http://www.w3.org/2000/svg" viewBox="0 0 180 140" width="180" height="140">
  <!-- Background -->
  <rect width="180" height="140" fill="#222" />

  <!-- Grid -->
  <g stroke="#333" stroke-width="0.5">
    <!-- Vertical lines -->
    <line x1="20" y1="0" x2="20" y2="140" />
    <line x1="40" y1="0" x2="40" y2="140" />
    <line x1="60" y1="0" x2="60" y2="140" />
    <line x1="80" y1="0" x2="80" y2="140" />
    <line x1="100" y1="0" x2="100" y2="140" />
    <line x1="120" y1="0" x2="120" y2="140" />
    <line x1="140" y1="0" x2="140" y2="140" />
    <line x1="160" y1="0" x2="160" y2="140" />

    <!-- Horizontal lines -->
    <line x1="0" y1="20" x2="180" y2="20" />
    <line x1="0" y1="40" x2="180" y2="40" />
    <line x1="0" y1="60" x2="180" y2="60" />
    <line x1="0" y1="80" x2="180" y2="80" />
    <line x1="0" y1="100" x2="180" y2="100" />
    <line x1="0" y1="120" x2="180" y2="120" />
  </g>

  <!-- Cells -->
  <g fill="white">
    <rect x="79.75" y="39.75" width="20.5" height="20.5" />
    <rect x="99.75" y="59.75" width="20.5" height="20.5" />
    <rect x="59.75" y="79.75" width="20.5" height="20.5" />
    <rect x="79.75" y="79.75" width="20.5" height="20.5" />
    <rect x="99.75" y="79.75" width="20.5" height="20.5" />
  </g>
</svg>
