<svg xmlns="http://www.w3.org/2000/svg" viewBox="0 0 140 140" width="140" height="140">
  <!-- Background -->
  <rect width="140" height="140" fill="black" />

  <!-- Grid -->
  <g stroke="white" stroke-width="0.5">
    <!-- Vertical lines -->
    <line x1="20" y1="0" x2="20" y2="140" />
    <line x1="40" y1="0" x2="40" y2="140" />
    <line x1="60" y1="0" x2="60" y2="140" />
    <line x1="80" y1="0" x2="80" y2="140" />
    <line x1="100" y1="0" x2="100" y2="140" />
    <line x1="120" y1="0" x2="120" y2="140" />

    <!-- Horizontal lines -->
    <line x1="0" y1="20" x2="140" y2="20" />
    <line x1="0" y1="40" x2="140" y2="40" />
    <line x1="0" y1="60" x2="140" y2="60" />
    <line x1="0" y1="80" x2="140" y2="80" />
    <line x1="0" y1="100" x2="140" y2="100" />
    <line x1="0" y1="120" x2="140" y2="120" />
  </g>

  <!-- Glider cells -->
  <g fill="white">
    <!-- Cell 1 -->
    <rect x="60" y="40" width="20" height="20" />
    <!-- Cell 2 -->
    <rect x="80" y="60" width="20" height="20" />
    <!-- Cell 3 -->
    <rect x="40" y="80" width="20" height="20" />
    <!-- Cell 4 -->
    <rect x="60" y="80" width="20" height="20" />
    <!-- Cell 5 -->
    <rect x="80" y="80" width="20" height="20" />
  </g>
</svg>